solid OpenSCAD_Model
  facet normal 0 0.06540312923014313 -0.9978589232386036
    outer loop
      vertex -6.050000000000001 0 -6.35
      vertex -0.05000000000000071 0.8288413205973274 -6.295674869723696
      vertex -0.05000000000000071 0 -6.35
    endloop
  endfacet
  facet normal 0 0.06540312923014313 -0.9978589232386036
    outer loop
      vertex -0.05000000000000071 0.8288413205973274 -6.295674869723696
      vertex -6.050000000000001 0 -6.35
      vertex -6.050000000000001 0.8288413205973274 -6.295674869723696
    endloop
  endfacet
  facet normal 0 0.1950903220161277 -0.9807852804032305
    outer loop
      vertex -6.050000000000001 0.8288413205973274 -6.295674869723696
      vertex -0.05000000000000071 1.6435009364010067 -6.133628996935584
      vertex -0.05000000000000071 0.8288413205973274 -6.295674869723696
    endloop
  endfacet
  facet normal 0 0.1950903220161277 -0.9807852804032305
    outer loop
      vertex -0.05000000000000071 1.6435009364010067 -6.133628996935584
      vertex -6.050000000000001 0.8288413205973274 -6.295674869723696
      vertex -6.050000000000001 1.6435009364010067 -6.133628996935584
    endloop
  endfacet
  facet normal 0 0.321439465303162 -0.9469301294951055
    outer loop
      vertex -6.050000000000001 1.6435009364010067 -6.133628996935584
      vertex -0.05000000000000071 2.43003979551832 -5.866635031446671
      vertex -0.05000000000000071 1.6435009364010067 -6.133628996935584
    endloop
  endfacet
  facet normal 0 0.321439465303162 -0.9469301294951055
    outer loop
      vertex -0.05000000000000071 2.43003979551832 -5.866635031446671
      vertex -6.050000000000001 1.6435009364010067 -6.133628996935584
      vertex -6.050000000000001 2.43003979551832 -5.866635031446671
    endloop
  endfacet
  facet normal 0 0.4422886902190017 -0.8968727415326881
    outer loop
      vertex -6.050000000000001 2.43003979551832 -5.866635031446671
      vertex -0.05000000000000071 3.175 -5.499261314031185
      vertex -0.05000000000000071 2.43003979551832 -5.866635031446671
    endloop
  endfacet
  facet normal 0 0.4422886902190017 -0.8968727415326881
    outer loop
      vertex -0.05000000000000071 3.175 -5.499261314031185
      vertex -6.050000000000001 2.43003979551832 -5.866635031446671
      vertex -6.050000000000001 3.175 -5.499261314031185
    endloop
  endfacet
  facet normal 0 0.5555702330196023 -0.8314696123025451
    outer loop
      vertex -6.050000000000001 3.175 -5.499261314031185
      vertex -0.05000000000000071 3.8656350742053758 -5.037793710849343
      vertex -0.05000000000000071 3.175 -5.499261314031185
    endloop
  endfacet
  facet normal 0 0.5555702330196023 -0.8314696123025451
    outer loop
      vertex -0.05000000000000071 3.8656350742053758 -5.037793710849343
      vertex -6.050000000000001 3.175 -5.499261314031185
      vertex -6.050000000000001 3.8656350742053758 -5.037793710849343
    endloop
  endfacet
  facet normal 0 0.6593458151000683 -0.7518398074789779
    outer loop
      vertex -6.050000000000001 3.8656350742053758 -5.037793710849343
      vertex -0.05000000000000071 4.490128060534577 -4.490128060534577
      vertex -0.05000000000000071 3.8656350742053758 -5.037793710849343
    endloop
  endfacet
  facet normal 0 0.6593458151000683 -0.7518398074789779
    outer loop
      vertex -0.05000000000000071 4.490128060534577 -4.490128060534577
      vertex -6.050000000000001 3.8656350742053758 -5.037793710849343
      vertex -6.050000000000001 4.490128060534577 -4.490128060534577
    endloop
  endfacet
  facet normal 0 0.7518398074789779 -0.6593458151000683
    outer loop
      vertex -0.05000000000000071 4.490128060534577 -4.490128060534577
      vertex -6.050000000000001 5.037793710849343 -3.8656350742053758
      vertex -0.05000000000000071 5.037793710849343 -3.8656350742053758
    endloop
  endfacet
  facet normal 0 0.7518398074789779 -0.6593458151000683
    outer loop
      vertex -6.050000000000001 5.037793710849343 -3.8656350742053758
      vertex -0.05000000000000071 4.490128060534577 -4.490128060534577
      vertex -6.050000000000001 4.490128060534577 -4.490128060534577
    endloop
  endfacet
  facet normal 0 0.8314696123025451 -0.5555702330196023
    outer loop
      vertex -0.05000000000000071 5.037793710849343 -3.8656350742053758
      vertex -6.050000000000001 5.499261314031185 -3.175
      vertex -0.05000000000000071 5.499261314031185 -3.175
    endloop
  endfacet
  facet normal 0 0.8314696123025451 -0.5555702330196023
    outer loop
      vertex -6.050000000000001 5.499261314031185 -3.175
      vertex -0.05000000000000071 5.037793710849343 -3.8656350742053758
      vertex -6.050000000000001 5.037793710849343 -3.8656350742053758
    endloop
  endfacet
  facet normal 0 0.8968727415326881 -0.4422886902190017
    outer loop
      vertex -0.05000000000000071 5.499261314031185 -3.175
      vertex -6.050000000000001 5.866635031446671 -2.43003979551832
      vertex -0.05000000000000071 5.866635031446671 -2.43003979551832
    endloop
  endfacet
  facet normal 0 0.8968727415326881 -0.4422886902190017
    outer loop
      vertex -6.050000000000001 5.866635031446671 -2.43003979551832
      vertex -0.05000000000000071 5.499261314031185 -3.175
      vertex -6.050000000000001 5.499261314031185 -3.175
    endloop
  endfacet
  facet normal 0 0.9469301294951055 -0.321439465303162
    outer loop
      vertex -0.05000000000000071 5.866635031446671 -2.43003979551832
      vertex -6.050000000000001 6.133628996935584 -1.6435009364010067
      vertex -0.05000000000000071 6.133628996935584 -1.6435009364010067
    endloop
  endfacet
  facet normal 0 0.9469301294951055 -0.321439465303162
    outer loop
      vertex -6.050000000000001 6.133628996935584 -1.6435009364010067
      vertex -0.05000000000000071 5.866635031446671 -2.43003979551832
      vertex -6.050000000000001 5.866635031446671 -2.43003979551832
    endloop
  endfacet
  facet normal 0 0.9807852804032305 -0.1950903220161277
    outer loop
      vertex -0.05000000000000071 6.133628996935584 -1.6435009364010067
      vertex -6.050000000000001 6.295674869723696 -0.8288413205973274
      vertex -0.05000000000000071 6.295674869723696 -0.8288413205973274
    endloop
  endfacet
  facet normal 0 0.9807852804032305 -0.1950903220161277
    outer loop
      vertex -6.050000000000001 6.295674869723696 -0.8288413205973274
      vertex -0.05000000000000071 6.133628996935584 -1.6435009364010067
      vertex -6.050000000000001 6.133628996935584 -1.6435009364010067
    endloop
  endfacet
  facet normal 0 0.9978589232386036 -0.06540312923014313
    outer loop
      vertex -0.05000000000000071 6.295674869723696 -0.8288413205973274
      vertex -6.050000000000001 6.35 0
      vertex -0.05000000000000071 6.35 0
    endloop
  endfacet
  facet normal 0 0.9978589232386036 -0.06540312923014313
    outer loop
      vertex -6.050000000000001 6.35 0
      vertex -0.05000000000000071 6.295674869723696 -0.8288413205973274
      vertex -6.050000000000001 6.295674869723696 -0.8288413205973274
    endloop
  endfacet
  facet normal 0 0.9978589232386036 0.06540312923014313
    outer loop
      vertex -0.05000000000000071 6.35 0
      vertex -6.050000000000001 6.295674869723696 0.8288413205973274
      vertex -0.05000000000000071 6.295674869723696 0.8288413205973274
    endloop
  endfacet
  facet normal 0 0.9978589232386036 0.06540312923014313
    outer loop
      vertex -6.050000000000001 6.295674869723696 0.8288413205973274
      vertex -0.05000000000000071 6.35 0
      vertex -6.050000000000001 6.35 0
    endloop
  endfacet
  facet normal 0 0.9807852804032305 0.1950903220161277
    outer loop
      vertex -0.05000000000000071 6.295674869723696 0.8288413205973274
      vertex -6.050000000000001 6.133628996935584 1.6435009364010067
      vertex -0.05000000000000071 6.133628996935584 1.6435009364010067
    endloop
  endfacet
  facet normal 0 0.9807852804032305 0.1950903220161277
    outer loop
      vertex -6.050000000000001 6.133628996935584 1.6435009364010067
      vertex -0.05000000000000071 6.295674869723696 0.8288413205973274
      vertex -6.050000000000001 6.295674869723696 0.8288413205973274
    endloop
  endfacet
  facet normal 0 0.9469301294951055 0.321439465303162
    outer loop
      vertex -0.05000000000000071 6.133628996935584 1.6435009364010067
      vertex -6.050000000000001 5.866635031446671 2.43003979551832
      vertex -0.05000000000000071 5.866635031446671 2.43003979551832
    endloop
  endfacet
  facet normal 0 0.9469301294951055 0.321439465303162
    outer loop
      vertex -6.050000000000001 5.866635031446671 2.43003979551832
      vertex -0.05000000000000071 6.133628996935584 1.6435009364010067
      vertex -6.050000000000001 6.133628996935584 1.6435009364010067
    endloop
  endfacet
  facet normal 0 0.8968727415326881 0.4422886902190017
    outer loop
      vertex -0.05000000000000071 5.866635031446671 2.43003979551832
      vertex -6.050000000000001 5.499261314031185 3.175
      vertex -0.05000000000000071 5.499261314031185 3.175
    endloop
  endfacet
  facet normal 0 0.8968727415326881 0.4422886902190017
    outer loop
      vertex -6.050000000000001 5.499261314031185 3.175
      vertex -0.05000000000000071 5.866635031446671 2.43003979551832
      vertex -6.050000000000001 5.866635031446671 2.43003979551832
    endloop
  endfacet
  facet normal 0 0.8314696123025451 0.5555702330196023
    outer loop
      vertex -0.05000000000000071 5.499261314031185 3.175
      vertex -6.050000000000001 5.037793710849343 3.8656350742053758
      vertex -0.05000000000000071 5.037793710849343 3.8656350742053758
    endloop
  endfacet
  facet normal 0 0.8314696123025451 0.5555702330196023
    outer loop
      vertex -6.050000000000001 5.037793710849343 3.8656350742053758
      vertex -0.05000000000000071 5.499261314031185 3.175
      vertex -6.050000000000001 5.499261314031185 3.175
    endloop
  endfacet
  facet normal 0 0.7518398074789779 0.6593458151000683
    outer loop
      vertex -0.05000000000000071 5.037793710849343 3.8656350742053758
      vertex -6.050000000000001 4.490128060534577 4.490128060534577
      vertex -0.05000000000000071 4.490128060534577 4.490128060534577
    endloop
  endfacet
  facet normal 0 0.7518398074789779 0.6593458151000683
    outer loop
      vertex -6.050000000000001 4.490128060534577 4.490128060534577
      vertex -0.05000000000000071 5.037793710849343 3.8656350742053758
      vertex -6.050000000000001 5.037793710849343 3.8656350742053758
    endloop
  endfacet
  facet normal 0 0.6593458151000683 0.7518398074789779
    outer loop
      vertex -6.050000000000001 4.490128060534577 4.490128060534577
      vertex -0.05000000000000071 3.8656350742053758 5.037793710849343
      vertex -0.05000000000000071 4.490128060534577 4.490128060534577
    endloop
  endfacet
  facet normal 0 0.6593458151000683 0.7518398074789779
    outer loop
      vertex -0.05000000000000071 3.8656350742053758 5.037793710849343
      vertex -6.050000000000001 4.490128060534577 4.490128060534577
      vertex -6.050000000000001 3.8656350742053758 5.037793710849343
    endloop
  endfacet
  facet normal 0 0.5555702330196023 0.8314696123025451
    outer loop
      vertex -6.050000000000001 3.8656350742053758 5.037793710849343
      vertex -0.05000000000000071 3.175 5.499261314031185
      vertex -0.05000000000000071 3.8656350742053758 5.037793710849343
    endloop
  endfacet
  facet normal 0 0.5555702330196023 0.8314696123025451
    outer loop
      vertex -0.05000000000000071 3.175 5.499261314031185
      vertex -6.050000000000001 3.8656350742053758 5.037793710849343
      vertex -6.050000000000001 3.175 5.499261314031185
    endloop
  endfacet
  facet normal 0 0.4422886902190017 0.8968727415326881
    outer loop
      vertex -6.050000000000001 3.175 5.499261314031185
      vertex -0.05000000000000071 2.43003979551832 5.866635031446671
      vertex -0.05000000000000071 3.175 5.499261314031185
    endloop
  endfacet
  facet normal 0 0.4422886902190017 0.8968727415326881
    outer loop
      vertex -0.05000000000000071 2.43003979551832 5.866635031446671
      vertex -6.050000000000001 3.175 5.499261314031185
      vertex -6.050000000000001 2.43003979551832 5.866635031446671
    endloop
  endfacet
  facet normal 0 0.321439465303162 0.9469301294951055
    outer loop
      vertex -6.050000000000001 2.43003979551832 5.866635031446671
      vertex -0.05000000000000071 1.6435009364010067 6.133628996935584
      vertex -0.05000000000000071 2.43003979551832 5.866635031446671
    endloop
  endfacet
  facet normal 0 0.321439465303162 0.9469301294951055
    outer loop
      vertex -0.05000000000000071 1.6435009364010067 6.133628996935584
      vertex -6.050000000000001 2.43003979551832 5.866635031446671
      vertex -6.050000000000001 1.6435009364010067 6.133628996935584
    endloop
  endfacet
  facet normal 0 0.1950903220161277 0.9807852804032305
    outer loop
      vertex -6.050000000000001 1.6435009364010067 6.133628996935584
      vertex -0.05000000000000071 0.8288413205973274 6.295674869723696
      vertex -0.05000000000000071 1.6435009364010067 6.133628996935584
    endloop
  endfacet
  facet normal 0 0.1950903220161277 0.9807852804032305
    outer loop
      vertex -0.05000000000000071 0.8288413205973274 6.295674869723696
      vertex -6.050000000000001 1.6435009364010067 6.133628996935584
      vertex -6.050000000000001 0.8288413205973274 6.295674869723696
    endloop
  endfacet
  facet normal 0 0.06540312923014313 0.9978589232386036
    outer loop
      vertex -6.050000000000001 0.8288413205973274 6.295674869723696
      vertex -0.05000000000000071 0 6.35
      vertex -0.05000000000000071 0.8288413205973274 6.295674869723696
    endloop
  endfacet
  facet normal 0 0.06540312923014313 0.9978589232386036
    outer loop
      vertex -0.05000000000000071 0 6.35
      vertex -6.050000000000001 0.8288413205973274 6.295674869723696
      vertex -6.050000000000001 0 6.35
    endloop
  endfacet
  facet normal 0 -0.06540312923014313 0.9978589232386036
    outer loop
      vertex -6.050000000000001 0 6.35
      vertex -0.05000000000000071 -0.8288413205973274 6.295674869723696
      vertex -0.05000000000000071 0 6.35
    endloop
  endfacet
  facet normal 0 -0.06540312923014313 0.9978589232386036
    outer loop
      vertex -0.05000000000000071 -0.8288413205973274 6.295674869723696
      vertex -6.050000000000001 0 6.35
      vertex -6.050000000000001 -0.8288413205973274 6.295674869723696
    endloop
  endfacet
  facet normal 0 -0.1950903220161277 0.9807852804032305
    outer loop
      vertex -6.050000000000001 -0.8288413205973274 6.295674869723696
      vertex -0.05000000000000071 -1.6435009364010067 6.133628996935584
      vertex -0.05000000000000071 -0.8288413205973274 6.295674869723696
    endloop
  endfacet
  facet normal 0 -0.1950903220161277 0.9807852804032305
    outer loop
      vertex -0.05000000000000071 -1.6435009364010067 6.133628996935584
      vertex -6.050000000000001 -0.8288413205973274 6.295674869723696
      vertex -6.050000000000001 -1.6435009364010067 6.133628996935584
    endloop
  endfacet
  facet normal 0 -0.321439465303162 0.9469301294951055
    outer loop
      vertex -6.050000000000001 -1.6435009364010067 6.133628996935584
      vertex -0.05000000000000071 -2.43003979551832 5.866635031446671
      vertex -0.05000000000000071 -1.6435009364010067 6.133628996935584
    endloop
  endfacet
  facet normal 0 -0.321439465303162 0.9469301294951055
    outer loop
      vertex -0.05000000000000071 -2.43003979551832 5.866635031446671
      vertex -6.050000000000001 -1.6435009364010067 6.133628996935584
      vertex -6.050000000000001 -2.43003979551832 5.866635031446671
    endloop
  endfacet
  facet normal 0 -0.4422886902190017 0.8968727415326881
    outer loop
      vertex -6.050000000000001 -2.43003979551832 5.866635031446671
      vertex -0.05000000000000071 -3.175 5.499261314031185
      vertex -0.05000000000000071 -2.43003979551832 5.866635031446671
    endloop
  endfacet
  facet normal 0 -0.4422886902190017 0.8968727415326881
    outer loop
      vertex -0.05000000000000071 -3.175 5.499261314031185
      vertex -6.050000000000001 -2.43003979551832 5.866635031446671
      vertex -6.050000000000001 -3.175 5.499261314031185
    endloop
  endfacet
  facet normal 0 -0.5555702330196023 0.8314696123025451
    outer loop
      vertex -6.050000000000001 -3.175 5.499261314031185
      vertex -0.05000000000000071 -3.8656350742053758 5.037793710849343
      vertex -0.05000000000000071 -3.175 5.499261314031185
    endloop
  endfacet
  facet normal 0 -0.5555702330196023 0.8314696123025451
    outer loop
      vertex -0.05000000000000071 -3.8656350742053758 5.037793710849343
      vertex -6.050000000000001 -3.175 5.499261314031185
      vertex -6.050000000000001 -3.8656350742053758 5.037793710849343
    endloop
  endfacet
  facet normal 0 -0.6593458151000683 0.7518398074789779
    outer loop
      vertex -6.050000000000001 -3.8656350742053758 5.037793710849343
      vertex -0.05000000000000071 -4.490128060534577 4.490128060534577
      vertex -0.05000000000000071 -3.8656350742053758 5.037793710849343
    endloop
  endfacet
  facet normal 0 -0.6593458151000683 0.7518398074789779
    outer loop
      vertex -0.05000000000000071 -4.490128060534577 4.490128060534577
      vertex -6.050000000000001 -3.8656350742053758 5.037793710849343
      vertex -6.050000000000001 -4.490128060534577 4.490128060534577
    endloop
  endfacet
  facet normal 0 -0.7518398074789779 0.6593458151000683
    outer loop
      vertex -6.050000000000001 -5.037793710849343 3.8656350742053758
      vertex -0.05000000000000071 -4.490128060534577 4.490128060534577
      vertex -6.050000000000001 -4.490128060534577 4.490128060534577
    endloop
  endfacet
  facet normal 0 -0.7518398074789779 0.6593458151000683
    outer loop
      vertex -0.05000000000000071 -4.490128060534577 4.490128060534577
      vertex -6.050000000000001 -5.037793710849343 3.8656350742053758
      vertex -0.05000000000000071 -5.037793710849343 3.8656350742053758
    endloop
  endfacet
  facet normal 0 -0.8314696123025451 0.5555702330196023
    outer loop
      vertex -6.050000000000001 -5.499261314031185 3.175
      vertex -0.05000000000000071 -5.037793710849343 3.8656350742053758
      vertex -6.050000000000001 -5.037793710849343 3.8656350742053758
    endloop
  endfacet
  facet normal 0 -0.8314696123025451 0.5555702330196023
    outer loop
      vertex -0.05000000000000071 -5.037793710849343 3.8656350742053758
      vertex -6.050000000000001 -5.499261314031185 3.175
      vertex -0.05000000000000071 -5.499261314031185 3.175
    endloop
  endfacet
  facet normal 0 -0.8968727415326881 0.4422886902190017
    outer loop
      vertex -6.050000000000001 -5.866635031446671 2.43003979551832
      vertex -0.05000000000000071 -5.499261314031185 3.175
      vertex -6.050000000000001 -5.499261314031185 3.175
    endloop
  endfacet
  facet normal 0 -0.8968727415326881 0.4422886902190017
    outer loop
      vertex -0.05000000000000071 -5.499261314031185 3.175
      vertex -6.050000000000001 -5.866635031446671 2.43003979551832
      vertex -0.05000000000000071 -5.866635031446671 2.43003979551832
    endloop
  endfacet
  facet normal 0 -0.9469301294951055 0.321439465303162
    outer loop
      vertex -6.050000000000001 -6.133628996935584 1.6435009364010067
      vertex -0.05000000000000071 -5.866635031446671 2.43003979551832
      vertex -6.050000000000001 -5.866635031446671 2.43003979551832
    endloop
  endfacet
  facet normal 0 -0.9469301294951055 0.321439465303162
    outer loop
      vertex -0.05000000000000071 -5.866635031446671 2.43003979551832
      vertex -6.050000000000001 -6.133628996935584 1.6435009364010067
      vertex -0.05000000000000071 -6.133628996935584 1.6435009364010067
    endloop
  endfacet
  facet normal 0 -0.9807852804032305 0.1950903220161277
    outer loop
      vertex -6.050000000000001 -6.295674869723696 0.8288413205973274
      vertex -0.05000000000000071 -6.133628996935584 1.6435009364010067
      vertex -6.050000000000001 -6.133628996935584 1.6435009364010067
    endloop
  endfacet
  facet normal 0 -0.9807852804032305 0.1950903220161277
    outer loop
      vertex -0.05000000000000071 -6.133628996935584 1.6435009364010067
      vertex -6.050000000000001 -6.295674869723696 0.8288413205973274
      vertex -0.05000000000000071 -6.295674869723696 0.8288413205973274
    endloop
  endfacet
  facet normal 0 -0.9978589232386036 0.06540312923014313
    outer loop
      vertex -6.050000000000001 -6.35 0
      vertex -0.05000000000000071 -6.295674869723696 0.8288413205973274
      vertex -6.050000000000001 -6.295674869723696 0.8288413205973274
    endloop
  endfacet
  facet normal 0 -0.9978589232386036 0.06540312923014313
    outer loop
      vertex -0.05000000000000071 -6.295674869723696 0.8288413205973274
      vertex -6.050000000000001 -6.35 0
      vertex -0.05000000000000071 -6.35 0
    endloop
  endfacet
  facet normal 0 -0.9978589232386036 -0.06540312923014313
    outer loop
      vertex -6.050000000000001 -6.295674869723696 -0.8288413205973274
      vertex -0.05000000000000071 -6.35 0
      vertex -6.050000000000001 -6.35 0
    endloop
  endfacet
  facet normal 0 -0.9978589232386036 -0.06540312923014313
    outer loop
      vertex -0.05000000000000071 -6.35 0
      vertex -6.050000000000001 -6.295674869723696 -0.8288413205973274
      vertex -0.05000000000000071 -6.295674869723696 -0.8288413205973274
    endloop
  endfacet
  facet normal 0 -0.9807852804032305 -0.1950903220161277
    outer loop
      vertex -6.050000000000001 -6.133628996935584 -1.6435009364010067
      vertex -0.05000000000000071 -6.295674869723696 -0.8288413205973274
      vertex -6.050000000000001 -6.295674869723696 -0.8288413205973274
    endloop
  endfacet
  facet normal 0 -0.9807852804032305 -0.1950903220161277
    outer loop
      vertex -0.05000000000000071 -6.295674869723696 -0.8288413205973274
      vertex -6.050000000000001 -6.133628996935584 -1.6435009364010067
      vertex -0.05000000000000071 -6.133628996935584 -1.6435009364010067
    endloop
  endfacet
  facet normal 0 -0.9469301294951055 -0.321439465303162
    outer loop
      vertex -6.050000000000001 -5.866635031446671 -2.43003979551832
      vertex -0.05000000000000071 -6.133628996935584 -1.6435009364010067
      vertex -6.050000000000001 -6.133628996935584 -1.6435009364010067
    endloop
  endfacet
  facet normal 0 -0.9469301294951055 -0.321439465303162
    outer loop
      vertex -0.05000000000000071 -6.133628996935584 -1.6435009364010067
      vertex -6.050000000000001 -5.866635031446671 -2.43003979551832
      vertex -0.05000000000000071 -5.866635031446671 -2.43003979551832
    endloop
  endfacet
  facet normal 0 -0.8968727415326881 -0.4422886902190017
    outer loop
      vertex -6.050000000000001 -5.499261314031185 -3.175
      vertex -0.05000000000000071 -5.866635031446671 -2.43003979551832
      vertex -6.050000000000001 -5.866635031446671 -2.43003979551832
    endloop
  endfacet
  facet normal 0 -0.8968727415326881 -0.4422886902190017
    outer loop
      vertex -0.05000000000000071 -5.866635031446671 -2.43003979551832
      vertex -6.050000000000001 -5.499261314031185 -3.175
      vertex -0.05000000000000071 -5.499261314031185 -3.175
    endloop
  endfacet
  facet normal 0 -0.8314696123025451 -0.5555702330196023
    outer loop
      vertex -6.050000000000001 -5.037793710849343 -3.8656350742053758
      vertex -0.05000000000000071 -5.499261314031185 -3.175
      vertex -6.050000000000001 -5.499261314031185 -3.175
    endloop
  endfacet
  facet normal 0 -0.8314696123025451 -0.5555702330196023
    outer loop
      vertex -0.05000000000000071 -5.499261314031185 -3.175
      vertex -6.050000000000001 -5.037793710849343 -3.8656350742053758
      vertex -0.05000000000000071 -5.037793710849343 -3.8656350742053758
    endloop
  endfacet
  facet normal 0 -0.7518398074789779 -0.6593458151000683
    outer loop
      vertex -6.050000000000001 -4.490128060534577 -4.490128060534577
      vertex -0.05000000000000071 -5.037793710849343 -3.8656350742053758
      vertex -6.050000000000001 -5.037793710849343 -3.8656350742053758
    endloop
  endfacet
  facet normal 0 -0.7518398074789779 -0.6593458151000683
    outer loop
      vertex -0.05000000000000071 -5.037793710849343 -3.8656350742053758
      vertex -6.050000000000001 -4.490128060534577 -4.490128060534577
      vertex -0.05000000000000071 -4.490128060534577 -4.490128060534577
    endloop
  endfacet
  facet normal 0 -0.6593458151000683 -0.7518398074789779
    outer loop
      vertex -6.050000000000001 -4.490128060534577 -4.490128060534577
      vertex -0.05000000000000071 -3.8656350742053758 -5.037793710849343
      vertex -0.05000000000000071 -4.490128060534577 -4.490128060534577
    endloop
  endfacet
  facet normal 0 -0.6593458151000683 -0.7518398074789779
    outer loop
      vertex -0.05000000000000071 -3.8656350742053758 -5.037793710849343
      vertex -6.050000000000001 -4.490128060534577 -4.490128060534577
      vertex -6.050000000000001 -3.8656350742053758 -5.037793710849343
    endloop
  endfacet
  facet normal 0 -0.5555702330196023 -0.8314696123025451
    outer loop
      vertex -6.050000000000001 -3.8656350742053758 -5.037793710849343
      vertex -0.05000000000000071 -3.175 -5.499261314031185
      vertex -0.05000000000000071 -3.8656350742053758 -5.037793710849343
    endloop
  endfacet
  facet normal 0 -0.5555702330196023 -0.8314696123025451
    outer loop
      vertex -0.05000000000000071 -3.175 -5.499261314031185
      vertex -6.050000000000001 -3.8656350742053758 -5.037793710849343
      vertex -6.050000000000001 -3.175 -5.499261314031185
    endloop
  endfacet
  facet normal 0 -0.4422886902190017 -0.8968727415326881
    outer loop
      vertex -6.050000000000001 -3.175 -5.499261314031185
      vertex -0.05000000000000071 -2.43003979551832 -5.866635031446671
      vertex -0.05000000000000071 -3.175 -5.499261314031185
    endloop
  endfacet
  facet normal 0 -0.4422886902190017 -0.8968727415326881
    outer loop
      vertex -0.05000000000000071 -2.43003979551832 -5.866635031446671
      vertex -6.050000000000001 -3.175 -5.499261314031185
      vertex -6.050000000000001 -2.43003979551832 -5.866635031446671
    endloop
  endfacet
  facet normal 0 -0.321439465303162 -0.9469301294951055
    outer loop
      vertex -6.050000000000001 -2.43003979551832 -5.866635031446671
      vertex -0.05000000000000071 -1.6435009364010067 -6.133628996935584
      vertex -0.05000000000000071 -2.43003979551832 -5.866635031446671
    endloop
  endfacet
  facet normal 0 -0.321439465303162 -0.9469301294951055
    outer loop
      vertex -0.05000000000000071 -1.6435009364010067 -6.133628996935584
      vertex -6.050000000000001 -2.43003979551832 -5.866635031446671
      vertex -6.050000000000001 -1.6435009364010067 -6.133628996935584
    endloop
  endfacet
  facet normal 0 -0.1950903220161277 -0.9807852804032305
    outer loop
      vertex -6.050000000000001 -1.6435009364010067 -6.133628996935584
      vertex -0.05000000000000071 -0.8288413205973274 -6.295674869723696
      vertex -0.05000000000000071 -1.6435009364010067 -6.133628996935584
    endloop
  endfacet
  facet normal 0 -0.1950903220161277 -0.9807852804032305
    outer loop
      vertex -0.05000000000000071 -0.8288413205973274 -6.295674869723696
      vertex -6.050000000000001 -1.6435009364010067 -6.133628996935584
      vertex -6.050000000000001 -0.8288413205973274 -6.295674869723696
    endloop
  endfacet
  facet normal 0 -0.06540312923014313 -0.9978589232386036
    outer loop
      vertex -6.050000000000001 -0.8288413205973274 -6.295674869723696
      vertex -0.05000000000000071 0 -6.35
      vertex -0.05000000000000071 -0.8288413205973274 -6.295674869723696
    endloop
  endfacet
  facet normal 0 -0.06540312923014313 -0.9978589232386036
    outer loop
      vertex -0.05000000000000071 0 -6.35
      vertex -6.050000000000001 -0.8288413205973274 -6.295674869723696
      vertex -6.050000000000001 0 -6.35
    endloop
  endfacet
  facet normal -1 0 0
    outer loop
      vertex -6.050000000000001 6.295674869723696 -0.8288413205973274
      vertex -6.050000000000001 6.295674869723696 0.8288413205973274
      vertex -6.050000000000001 6.35 0
    endloop
  endfacet
  facet normal -1 0 0
    outer loop
      vertex -6.050000000000001 6.133628996935584 -1.6435009364010067
      vertex -6.050000000000001 6.295674869723696 0.8288413205973274
      vertex -6.050000000000001 6.295674869723696 -0.8288413205973274
    endloop
  endfacet
  facet normal -1 0 0
    outer loop
      vertex -6.050000000000001 6.133628996935584 -1.6435009364010067
      vertex -6.050000000000001 6.133628996935584 1.6435009364010067
      vertex -6.050000000000001 6.295674869723696 0.8288413205973274
    endloop
  endfacet
  facet normal -1 0 0
    outer loop
      vertex -6.050000000000001 5.866635031446671 -2.43003979551832
      vertex -6.050000000000001 6.133628996935584 1.6435009364010067
      vertex -6.050000000000001 6.133628996935584 -1.6435009364010067
    endloop
  endfacet
  facet normal -1 0 0
    outer loop
      vertex -6.050000000000001 5.866635031446671 -2.43003979551832
      vertex -6.050000000000001 5.866635031446671 2.43003979551832
      vertex -6.050000000000001 6.133628996935584 1.6435009364010067
    endloop
  endfacet
  facet normal -1 0 0
    outer loop
      vertex -6.050000000000001 5.499261314031185 -3.175
      vertex -6.050000000000001 5.866635031446671 2.43003979551832
      vertex -6.050000000000001 5.866635031446671 -2.43003979551832
    endloop
  endfacet
  facet normal -1 0 0
    outer loop
      vertex -6.050000000000001 5.499261314031185 -3.175
      vertex -6.050000000000001 5.499261314031185 3.175
      vertex -6.050000000000001 5.866635031446671 2.43003979551832
    endloop
  endfacet
  facet normal -1 0 0
    outer loop
      vertex -6.050000000000001 5.037793710849343 -3.8656350742053758
      vertex -6.050000000000001 5.499261314031185 3.175
      vertex -6.050000000000001 5.499261314031185 -3.175
    endloop
  endfacet
  facet normal -1 0 0
    outer loop
      vertex -6.050000000000001 5.037793710849343 -3.8656350742053758
      vertex -6.050000000000001 5.037793710849343 3.8656350742053758
      vertex -6.050000000000001 5.499261314031185 3.175
    endloop
  endfacet
  facet normal -1 0 0
    outer loop
      vertex -6.050000000000001 4.490128060534577 -4.490128060534577
      vertex -6.050000000000001 5.037793710849343 3.8656350742053758
      vertex -6.050000000000001 5.037793710849343 -3.8656350742053758
    endloop
  endfacet
  facet normal -1 0 0
    outer loop
      vertex -6.050000000000001 4.490128060534577 -4.490128060534577
      vertex -6.050000000000001 4.490128060534577 4.490128060534577
      vertex -6.050000000000001 5.037793710849343 3.8656350742053758
    endloop
  endfacet
  facet normal -1 0 0
    outer loop
      vertex -6.050000000000001 3.8656350742053758 -5.037793710849343
      vertex -6.050000000000001 4.490128060534577 4.490128060534577
      vertex -6.050000000000001 4.490128060534577 -4.490128060534577
    endloop
  endfacet
  facet normal -1 0 0
    outer loop
      vertex -6.050000000000001 3.8656350742053758 -5.037793710849343
      vertex -6.050000000000001 3.8656350742053758 5.037793710849343
      vertex -6.050000000000001 4.490128060534577 4.490128060534577
    endloop
  endfacet
  facet normal -1 0 0
    outer loop
      vertex -6.050000000000001 3.175 -5.499261314031185
      vertex -6.050000000000001 3.8656350742053758 5.037793710849343
      vertex -6.050000000000001 3.8656350742053758 -5.037793710849343
    endloop
  endfacet
  facet normal -1 0 0
    outer loop
      vertex -6.050000000000001 3.175 -5.499261314031185
      vertex -6.050000000000001 3.175 5.499261314031185
      vertex -6.050000000000001 3.8656350742053758 5.037793710849343
    endloop
  endfacet
  facet normal -1 0 0
    outer loop
      vertex -6.050000000000001 2.43003979551832 -5.866635031446671
      vertex -6.050000000000001 3.175 5.499261314031185
      vertex -6.050000000000001 3.175 -5.499261314031185
    endloop
  endfacet
  facet normal -1 0 0
    outer loop
      vertex -6.050000000000001 2.43003979551832 -5.866635031446671
      vertex -6.050000000000001 2.43003979551832 5.866635031446671
      vertex -6.050000000000001 3.175 5.499261314031185
    endloop
  endfacet
  facet normal -1 0 0
    outer loop
      vertex -6.050000000000001 1.6435009364010067 -6.133628996935584
      vertex -6.050000000000001 2.43003979551832 5.866635031446671
      vertex -6.050000000000001 2.43003979551832 -5.866635031446671
    endloop
  endfacet
  facet normal -1 0 0
    outer loop
      vertex -6.050000000000001 1.6435009364010067 -6.133628996935584
      vertex -6.050000000000001 1.6435009364010067 6.133628996935584
      vertex -6.050000000000001 2.43003979551832 5.866635031446671
    endloop
  endfacet
  facet normal -1 0 0
    outer loop
      vertex -6.050000000000001 0.8288413205973274 -6.295674869723696
      vertex -6.050000000000001 1.6435009364010067 6.133628996935584
      vertex -6.050000000000001 1.6435009364010067 -6.133628996935584
    endloop
  endfacet
  facet normal -1 0 0
    outer loop
      vertex -6.050000000000001 0.8288413205973274 -6.295674869723696
      vertex -6.050000000000001 0.8288413205973274 6.295674869723696
      vertex -6.050000000000001 1.6435009364010067 6.133628996935584
    endloop
  endfacet
  facet normal -1 0 0
    outer loop
      vertex -6.050000000000001 0 -6.35
      vertex -6.050000000000001 0.8288413205973274 6.295674869723696
      vertex -6.050000000000001 0.8288413205973274 -6.295674869723696
    endloop
  endfacet
  facet normal -1 0 0
    outer loop
      vertex -6.050000000000001 0 -6.35
      vertex -6.050000000000001 0 6.35
      vertex -6.050000000000001 0.8288413205973274 6.295674869723696
    endloop
  endfacet
  facet normal -1 0 0
    outer loop
      vertex -6.050000000000001 -0.8288413205973274 -6.295674869723696
      vertex -6.050000000000001 0 6.35
      vertex -6.050000000000001 0 -6.35
    endloop
  endfacet
  facet normal -1 0 0
    outer loop
      vertex -6.050000000000001 -0.8288413205973274 -6.295674869723696
      vertex -6.050000000000001 -0.8288413205973274 6.295674869723696
      vertex -6.050000000000001 0 6.35
    endloop
  endfacet
  facet normal -1 0 0
    outer loop
      vertex -6.050000000000001 -1.6435009364010067 -6.133628996935584
      vertex -6.050000000000001 -0.8288413205973274 6.295674869723696
      vertex -6.050000000000001 -0.8288413205973274 -6.295674869723696
    endloop
  endfacet
  facet normal -1 0 0
    outer loop
      vertex -6.050000000000001 -1.6435009364010067 -6.133628996935584
      vertex -6.050000000000001 -1.6435009364010067 6.133628996935584
      vertex -6.050000000000001 -0.8288413205973274 6.295674869723696
    endloop
  endfacet
  facet normal -1 0 0
    outer loop
      vertex -6.050000000000001 -2.43003979551832 -5.866635031446671
      vertex -6.050000000000001 -1.6435009364010067 6.133628996935584
      vertex -6.050000000000001 -1.6435009364010067 -6.133628996935584
    endloop
  endfacet
  facet normal -1 0 0
    outer loop
      vertex -6.050000000000001 -2.43003979551832 -5.866635031446671
      vertex -6.050000000000001 -2.43003979551832 5.866635031446671
      vertex -6.050000000000001 -1.6435009364010067 6.133628996935584
    endloop
  endfacet
  facet normal -1 0 0
    outer loop
      vertex -6.050000000000001 -3.175 -5.499261314031185
      vertex -6.050000000000001 -2.43003979551832 5.866635031446671
      vertex -6.050000000000001 -2.43003979551832 -5.866635031446671
    endloop
  endfacet
  facet normal -1 0 0
    outer loop
      vertex -6.050000000000001 -3.175 -5.499261314031185
      vertex -6.050000000000001 -3.175 5.499261314031185
      vertex -6.050000000000001 -2.43003979551832 5.866635031446671
    endloop
  endfacet
  facet normal -1 0 0
    outer loop
      vertex -6.050000000000001 -3.8656350742053758 -5.037793710849343
      vertex -6.050000000000001 -3.175 5.499261314031185
      vertex -6.050000000000001 -3.175 -5.499261314031185
    endloop
  endfacet
  facet normal -1 0 0
    outer loop
      vertex -6.050000000000001 -3.8656350742053758 -5.037793710849343
      vertex -6.050000000000001 -3.8656350742053758 5.037793710849343
      vertex -6.050000000000001 -3.175 5.499261314031185
    endloop
  endfacet
  facet normal -1 0 0
    outer loop
      vertex -6.050000000000001 -4.490128060534577 -4.490128060534577
      vertex -6.050000000000001 -3.8656350742053758 5.037793710849343
      vertex -6.050000000000001 -3.8656350742053758 -5.037793710849343
    endloop
  endfacet
  facet normal -1 0 0
    outer loop
      vertex -6.050000000000001 -4.490128060534577 -4.490128060534577
      vertex -6.050000000000001 -4.490128060534577 4.490128060534577
      vertex -6.050000000000001 -3.8656350742053758 5.037793710849343
    endloop
  endfacet
  facet normal -1 0 0
    outer loop
      vertex -6.050000000000001 -5.037793710849343 -3.8656350742053758
      vertex -6.050000000000001 -4.490128060534577 4.490128060534577
      vertex -6.050000000000001 -4.490128060534577 -4.490128060534577
    endloop
  endfacet
  facet normal -1 0 0
    outer loop
      vertex -6.050000000000001 -5.037793710849343 -3.8656350742053758
      vertex -6.050000000000001 -5.037793710849343 3.8656350742053758
      vertex -6.050000000000001 -4.490128060534577 4.490128060534577
    endloop
  endfacet
  facet normal -1 0 0
    outer loop
      vertex -6.050000000000001 -5.499261314031185 -3.175
      vertex -6.050000000000001 -5.037793710849343 3.8656350742053758
      vertex -6.050000000000001 -5.037793710849343 -3.8656350742053758
    endloop
  endfacet
  facet normal -1 0 0
    outer loop
      vertex -6.050000000000001 -5.499261314031185 -3.175
      vertex -6.050000000000001 -5.499261314031185 3.175
      vertex -6.050000000000001 -5.037793710849343 3.8656350742053758
    endloop
  endfacet
  facet normal -1 0 0
    outer loop
      vertex -6.050000000000001 -5.866635031446671 -2.43003979551832
      vertex -6.050000000000001 -5.499261314031185 3.175
      vertex -6.050000000000001 -5.499261314031185 -3.175
    endloop
  endfacet
  facet normal -1 0 0
    outer loop
      vertex -6.050000000000001 -5.866635031446671 -2.43003979551832
      vertex -6.050000000000001 -5.866635031446671 2.43003979551832
      vertex -6.050000000000001 -5.499261314031185 3.175
    endloop
  endfacet
  facet normal -1 0 0
    outer loop
      vertex -6.050000000000001 -6.133628996935584 -1.6435009364010067
      vertex -6.050000000000001 -5.866635031446671 2.43003979551832
      vertex -6.050000000000001 -5.866635031446671 -2.43003979551832
    endloop
  endfacet
  facet normal -1 0 0
    outer loop
      vertex -6.050000000000001 -6.133628996935584 -1.6435009364010067
      vertex -6.050000000000001 -6.133628996935584 1.6435009364010067
      vertex -6.050000000000001 -5.866635031446671 2.43003979551832
    endloop
  endfacet
  facet normal -1 0 0
    outer loop
      vertex -6.050000000000001 -6.295674869723696 -0.8288413205973274
      vertex -6.050000000000001 -6.133628996935584 1.6435009364010067
      vertex -6.050000000000001 -6.133628996935584 -1.6435009364010067
    endloop
  endfacet
  facet normal -1 0 0
    outer loop
      vertex -6.050000000000001 -6.295674869723696 -0.8288413205973274
      vertex -6.050000000000001 -6.295674869723696 0.8288413205973274
      vertex -6.050000000000001 -6.133628996935584 1.6435009364010067
    endloop
  endfacet
  facet normal -1 0 0
    outer loop
      vertex -6.050000000000001 -6.295674869723696 0.8288413205973274
      vertex -6.050000000000001 -6.295674869723696 -0.8288413205973274
      vertex -6.050000000000001 -6.35 0
    endloop
  endfacet
  facet normal 1 0 0
    outer loop
      vertex -0.05000000000000071 6.295674869723696 0.8288413205973274
      vertex -0.05000000000000071 6.295674869723696 -0.8288413205973274
      vertex -0.05000000000000071 6.35 0
    endloop
  endfacet
  facet normal 1 0 0
    outer loop
      vertex -0.05000000000000071 6.133628996935584 1.6435009364010067
      vertex -0.05000000000000071 6.295674869723696 -0.8288413205973274
      vertex -0.05000000000000071 6.295674869723696 0.8288413205973274
    endloop
  endfacet
  facet normal 1 0 0
    outer loop
      vertex -0.05000000000000071 6.133628996935584 1.6435009364010067
      vertex -0.05000000000000071 6.133628996935584 -1.6435009364010067
      vertex -0.05000000000000071 6.295674869723696 -0.8288413205973274
    endloop
  endfacet
  facet normal 1 0 0
    outer loop
      vertex -0.05000000000000071 5.866635031446671 2.43003979551832
      vertex -0.05000000000000071 6.133628996935584 -1.6435009364010067
      vertex -0.05000000000000071 6.133628996935584 1.6435009364010067
    endloop
  endfacet
  facet normal 1 0 0
    outer loop
      vertex -0.05000000000000071 5.866635031446671 2.43003979551832
      vertex -0.05000000000000071 5.866635031446671 -2.43003979551832
      vertex -0.05000000000000071 6.133628996935584 -1.6435009364010067
    endloop
  endfacet
  facet normal 1 0 0
    outer loop
      vertex -0.05000000000000071 5.499261314031185 3.175
      vertex -0.05000000000000071 5.866635031446671 -2.43003979551832
      vertex -0.05000000000000071 5.866635031446671 2.43003979551832
    endloop
  endfacet
  facet normal 1 0 0
    outer loop
      vertex -0.05000000000000071 5.499261314031185 3.175
      vertex -0.05000000000000071 5.499261314031185 -3.175
      vertex -0.05000000000000071 5.866635031446671 -2.43003979551832
    endloop
  endfacet
  facet normal 1 0 0
    outer loop
      vertex -0.05000000000000071 5.037793710849343 3.8656350742053758
      vertex -0.05000000000000071 5.499261314031185 -3.175
      vertex -0.05000000000000071 5.499261314031185 3.175
    endloop
  endfacet
  facet normal 1 0 0
    outer loop
      vertex -0.05000000000000071 5.037793710849343 3.8656350742053758
      vertex -0.05000000000000071 5.037793710849343 -3.8656350742053758
      vertex -0.05000000000000071 5.499261314031185 -3.175
    endloop
  endfacet
  facet normal 1 0 0
    outer loop
      vertex -0.05000000000000071 4.490128060534577 4.490128060534577
      vertex -0.05000000000000071 5.037793710849343 -3.8656350742053758
      vertex -0.05000000000000071 5.037793710849343 3.8656350742053758
    endloop
  endfacet
  facet normal 1 0 0
    outer loop
      vertex -0.05000000000000071 4.490128060534577 4.490128060534577
      vertex -0.05000000000000071 4.490128060534577 -4.490128060534577
      vertex -0.05000000000000071 5.037793710849343 -3.8656350742053758
    endloop
  endfacet
  facet normal 1 0 0
    outer loop
      vertex -0.05000000000000071 3.8656350742053758 5.037793710849343
      vertex -0.05000000000000071 4.490128060534577 -4.490128060534577
      vertex -0.05000000000000071 4.490128060534577 4.490128060534577
    endloop
  endfacet
  facet normal 1 0 0
    outer loop
      vertex -0.05000000000000071 3.8656350742053758 5.037793710849343
      vertex -0.05000000000000071 3.8656350742053758 -5.037793710849343
      vertex -0.05000000000000071 4.490128060534577 -4.490128060534577
    endloop
  endfacet
  facet normal 1 0 0
    outer loop
      vertex -0.05000000000000071 3.175 5.499261314031185
      vertex -0.05000000000000071 3.8656350742053758 -5.037793710849343
      vertex -0.05000000000000071 3.8656350742053758 5.037793710849343
    endloop
  endfacet
  facet normal 1 0 0
    outer loop
      vertex -0.05000000000000071 3.175 5.499261314031185
      vertex -0.05000000000000071 3.175 -5.499261314031185
      vertex -0.05000000000000071 3.8656350742053758 -5.037793710849343
    endloop
  endfacet
  facet normal 1 0 0
    outer loop
      vertex -0.05000000000000071 2.43003979551832 5.866635031446671
      vertex -0.05000000000000071 3.175 -5.499261314031185
      vertex -0.05000000000000071 3.175 5.499261314031185
    endloop
  endfacet
  facet normal 1 0 0
    outer loop
      vertex -0.05000000000000071 2.43003979551832 5.866635031446671
      vertex -0.05000000000000071 2.43003979551832 -5.866635031446671
      vertex -0.05000000000000071 3.175 -5.499261314031185
    endloop
  endfacet
  facet normal 1 0 0
    outer loop
      vertex -0.05000000000000071 1.6435009364010067 6.133628996935584
      vertex -0.05000000000000071 2.43003979551832 -5.866635031446671
      vertex -0.05000000000000071 2.43003979551832 5.866635031446671
    endloop
  endfacet
  facet normal 1 0 0
    outer loop
      vertex -0.05000000000000071 1.6435009364010067 6.133628996935584
      vertex -0.05000000000000071 1.6435009364010067 -6.133628996935584
      vertex -0.05000000000000071 2.43003979551832 -5.866635031446671
    endloop
  endfacet
  facet normal 1 0 0
    outer loop
      vertex -0.05000000000000071 0.8288413205973274 6.295674869723696
      vertex -0.05000000000000071 1.6435009364010067 -6.133628996935584
      vertex -0.05000000000000071 1.6435009364010067 6.133628996935584
    endloop
  endfacet
  facet normal 1 0 0
    outer loop
      vertex -0.05000000000000071 0.8288413205973274 6.295674869723696
      vertex -0.05000000000000071 0.8288413205973274 -6.295674869723696
      vertex -0.05000000000000071 1.6435009364010067 -6.133628996935584
    endloop
  endfacet
  facet normal 1 0 0
    outer loop
      vertex -0.05000000000000071 0 6.35
      vertex -0.05000000000000071 0.8288413205973274 -6.295674869723696
      vertex -0.05000000000000071 0.8288413205973274 6.295674869723696
    endloop
  endfacet
  facet normal 1 0 0
    outer loop
      vertex -0.05000000000000071 0 6.35
      vertex -0.05000000000000071 0 -6.35
      vertex -0.05000000000000071 0.8288413205973274 -6.295674869723696
    endloop
  endfacet
  facet normal 1 0 0
    outer loop
      vertex -0.05000000000000071 -0.8288413205973274 6.295674869723696
      vertex -0.05000000000000071 0 -6.35
      vertex -0.05000000000000071 0 6.35
    endloop
  endfacet
  facet normal 1 0 0
    outer loop
      vertex -0.05000000000000071 -0.8288413205973274 6.295674869723696
      vertex -0.05000000000000071 -0.8288413205973274 -6.295674869723696
      vertex -0.05000000000000071 0 -6.35
    endloop
  endfacet
  facet normal 1 0 0
    outer loop
      vertex -0.05000000000000071 -1.6435009364010067 6.133628996935584
      vertex -0.05000000000000071 -0.8288413205973274 -6.295674869723696
      vertex -0.05000000000000071 -0.8288413205973274 6.295674869723696
    endloop
  endfacet
  facet normal 1 0 0
    outer loop
      vertex -0.05000000000000071 -1.6435009364010067 6.133628996935584
      vertex -0.05000000000000071 -1.6435009364010067 -6.133628996935584
      vertex -0.05000000000000071 -0.8288413205973274 -6.295674869723696
    endloop
  endfacet
  facet normal 1 0 0
    outer loop
      vertex -0.05000000000000071 -2.43003979551832 5.866635031446671
      vertex -0.05000000000000071 -1.6435009364010067 -6.133628996935584
      vertex -0.05000000000000071 -1.6435009364010067 6.133628996935584
    endloop
  endfacet
  facet normal 1 0 0
    outer loop
      vertex -0.05000000000000071 -2.43003979551832 5.866635031446671
      vertex -0.05000000000000071 -2.43003979551832 -5.866635031446671
      vertex -0.05000000000000071 -1.6435009364010067 -6.133628996935584
    endloop
  endfacet
  facet normal 1 0 0
    outer loop
      vertex -0.05000000000000071 -3.175 5.499261314031185
      vertex -0.05000000000000071 -2.43003979551832 -5.866635031446671
      vertex -0.05000000000000071 -2.43003979551832 5.866635031446671
    endloop
  endfacet
  facet normal 1 0 0
    outer loop
      vertex -0.05000000000000071 -3.175 5.499261314031185
      vertex -0.05000000000000071 -3.175 -5.499261314031185
      vertex -0.05000000000000071 -2.43003979551832 -5.866635031446671
    endloop
  endfacet
  facet normal 1 0 0
    outer loop
      vertex -0.05000000000000071 -3.8656350742053758 5.037793710849343
      vertex -0.05000000000000071 -3.175 -5.499261314031185
      vertex -0.05000000000000071 -3.175 5.499261314031185
    endloop
  endfacet
  facet normal 1 0 0
    outer loop
      vertex -0.05000000000000071 -3.8656350742053758 5.037793710849343
      vertex -0.05000000000000071 -3.8656350742053758 -5.037793710849343
      vertex -0.05000000000000071 -3.175 -5.499261314031185
    endloop
  endfacet
  facet normal 1 0 0
    outer loop
      vertex -0.05000000000000071 -4.490128060534577 4.490128060534577
      vertex -0.05000000000000071 -3.8656350742053758 -5.037793710849343
      vertex -0.05000000000000071 -3.8656350742053758 5.037793710849343
    endloop
  endfacet
  facet normal 1 0 0
    outer loop
      vertex -0.05000000000000071 -4.490128060534577 4.490128060534577
      vertex -0.05000000000000071 -4.490128060534577 -4.490128060534577
      vertex -0.05000000000000071 -3.8656350742053758 -5.037793710849343
    endloop
  endfacet
  facet normal 1 0 0
    outer loop
      vertex -0.05000000000000071 -5.037793710849343 3.8656350742053758
      vertex -0.05000000000000071 -4.490128060534577 -4.490128060534577
      vertex -0.05000000000000071 -4.490128060534577 4.490128060534577
    endloop
  endfacet
  facet normal 1 0 0
    outer loop
      vertex -0.05000000000000071 -5.037793710849343 3.8656350742053758
      vertex -0.05000000000000071 -5.037793710849343 -3.8656350742053758
      vertex -0.05000000000000071 -4.490128060534577 -4.490128060534577
    endloop
  endfacet
  facet normal 1 0 0
    outer loop
      vertex -0.05000000000000071 -5.499261314031185 3.175
      vertex -0.05000000000000071 -5.037793710849343 -3.8656350742053758
      vertex -0.05000000000000071 -5.037793710849343 3.8656350742053758
    endloop
  endfacet
  facet normal 1 0 0
    outer loop
      vertex -0.05000000000000071 -5.499261314031185 3.175
      vertex -0.05000000000000071 -5.499261314031185 -3.175
      vertex -0.05000000000000071 -5.037793710849343 -3.8656350742053758
    endloop
  endfacet
  facet normal 1 0 0
    outer loop
      vertex -0.05000000000000071 -5.866635031446671 2.43003979551832
      vertex -0.05000000000000071 -5.499261314031185 -3.175
      vertex -0.05000000000000071 -5.499261314031185 3.175
    endloop
  endfacet
  facet normal 1 0 0
    outer loop
      vertex -0.05000000000000071 -5.866635031446671 2.43003979551832
      vertex -0.05000000000000071 -5.866635031446671 -2.43003979551832
      vertex -0.05000000000000071 -5.499261314031185 -3.175
    endloop
  endfacet
  facet normal 1 0 0
    outer loop
      vertex -0.05000000000000071 -6.133628996935584 1.6435009364010067
      vertex -0.05000000000000071 -5.866635031446671 -2.43003979551832
      vertex -0.05000000000000071 -5.866635031446671 2.43003979551832
    endloop
  endfacet
  facet normal 1 0 0
    outer loop
      vertex -0.05000000000000071 -6.133628996935584 1.6435009364010067
      vertex -0.05000000000000071 -6.133628996935584 -1.6435009364010067
      vertex -0.05000000000000071 -5.866635031446671 -2.43003979551832
    endloop
  endfacet
  facet normal 1 0 0
    outer loop
      vertex -0.05000000000000071 -6.295674869723696 0.8288413205973274
      vertex -0.05000000000000071 -6.133628996935584 -1.6435009364010067
      vertex -0.05000000000000071 -6.133628996935584 1.6435009364010067
    endloop
  endfacet
  facet normal 1 0 0
    outer loop
      vertex -0.05000000000000071 -6.295674869723696 0.8288413205973274
      vertex -0.05000000000000071 -6.295674869723696 -0.8288413205973274
      vertex -0.05000000000000071 -6.133628996935584 -1.6435009364010067
    endloop
  endfacet
  facet normal 1 0 0
    outer loop
      vertex -0.05000000000000071 -6.295674869723696 -0.8288413205973274
      vertex -0.05000000000000071 -6.295674869723696 0.8288413205973274
      vertex -0.05000000000000071 -6.35 0
    endloop
  endfacet
endsolid OpenSCAD_Model
